<?xml version="1.0" encoding="UTF-8"?>
<svg version="1.1" xmlns="http://www.w3.org/2000/svg" width="96" height="96">
<path d="M0 0 C3.25 1.875 3.25 1.875 6 4 C8.3243602 4.69730806 10.65673706 5.36912152 13 6 C15 8 15 8 15 11 C16.11375 10.95875 17.2275 10.9175 18.375 10.875 C22 11 22 11 24 13 C24.26742554 15.68797302 24.26742554 15.68797302 24.29052734 19.14624023 C24.30328705 20.43775497 24.31604675 21.72926971 24.32919312 23.05992126 C24.33225032 24.47614391 24.33447832 25.89236856 24.3359375 27.30859375 C24.34236181 28.75586582 24.3490899 30.20313658 24.35610962 31.65040588 C24.36809471 34.68599459 24.37178917 37.72146938 24.37060547 40.75708008 C24.37040216 44.64914991 24.39770958 48.54049046 24.43214989 52.43238735 C24.45437467 55.42209739 24.4584444 58.41163067 24.45738602 61.40141487 C24.45974846 62.83637062 24.46860819 64.27133077 24.48405075 65.70620537 C24.50361822 67.71216331 24.49537405 69.71833451 24.48583984 71.72436523 C24.48868988 72.86638901 24.49153992 74.00841278 24.49447632 75.18504333 C24 78 24 78 22.12612915 79.86024475 C14.25390484 84.08031246 1.16115977 82.09452903 -7.5625 82.125 C-8.685354 82.12975342 -9.80820801 82.13450684 -10.96508789 82.1394043 C-14.31210091 82.13282097 -17.65393433 82.07861677 -21 82 C-22.19737793 81.98163086 -23.39475586 81.96326172 -24.62841797 81.94433594 C-25.79131348 81.89825195 -26.95420898 81.85216797 -28.15234375 81.8046875 C-29.20284912 81.77101074 -30.25335449 81.73733398 -31.33569336 81.70263672 C-34 81 -34 81 -35.64324951 78.82510376 C-37.1714676 75.64296031 -37.37447849 73.60926301 -37.37231445 70.09570312 C-37.37854324 68.93099487 -37.38477203 67.76628662 -37.39118958 66.56628418 C-37.38197983 65.3172229 -37.37277008 64.06816162 -37.36328125 62.78125 C-37.36402901 60.84529968 -37.36402901 60.84529968 -37.36479187 58.87023926 C-37.36470236 56.14335378 -37.35431679 53.41676524 -37.33618164 50.68994141 C-37.31349498 47.20301108 -37.31295258 43.71651416 -37.31969929 40.22953033 C-37.32385333 36.89255456 -37.31186054 33.55571089 -37.30078125 30.21875 C-37.30214836 28.34515808 -37.30214836 28.34515808 -37.30354309 26.43371582 C-37.29401108 25.26900757 -37.28447906 24.10429932 -37.2746582 22.90429688 C-37.27005081 21.88235229 -37.26544342 20.86040771 -37.26069641 19.80749512 C-36.98191628 16.80525262 -36.40676372 14.66477903 -35 12 C-32 10.625 -32 10.625 -29 10 C-28.34 10.33 -27.68 10.66 -27 11 C-26.87625 10.236875 -26.7525 9.47375 -26.625 8.6875 C-24.64058266 5.40557901 -23.72009166 5.36365021 -20.125 4.375 C-19.26132812 4.17648438 -18.39765625 3.97796875 -17.5078125 3.7734375 C-14.94211007 3.14623159 -14.94211007 3.14623159 -13.015625 1.44140625 C-9.19666708 -1.28959273 -4.48647807 -0.60822516 0 0 Z M-13 10 C-15.31347872 10.73260159 -17.645752 11.411438 -20 12 C-20 12.33 -20 12.66 -20 13 C-7.46827783 13.14236956 -7.46827783 13.14236956 5 12 C4.01 11.34 3.02 10.68 2 10 C1.4225 9.46375 0.845 8.9275 0.25 8.375 C-4.72907513 5.33223186 -8.78172113 6.57264842 -13 10 Z M-30 17 C-30.02312883 24.41459942 -30.04091785 31.82919111 -30.05181217 39.24381924 C-30.05703982 42.68640348 -30.06413531 46.12896312 -30.07543945 49.5715332 C-30.08834235 53.52555043 -30.09322918 57.47955756 -30.09765625 61.43359375 C-30.10281754 62.67523788 -30.10797882 63.91688202 -30.11329651 65.19615173 C-30.11337204 66.33725906 -30.11344757 67.47836639 -30.11352539 68.65405273 C-30.115746 69.664431 -30.11796661 70.67480927 -30.12025452 71.71580505 C-30.25717605 73.96580854 -30.25717605 73.96580854 -29 75 C-25.87151971 75.11368996 -22.76596751 75.16419538 -19.63671875 75.16796875 C-18.69319046 75.17129715 -17.74966217 75.17462555 -16.77754211 75.17805481 C-14.77593474 75.18312918 -12.77431888 75.18546298 -10.77270508 75.18530273 C-7.71095769 75.18748329 -4.64957389 75.20561722 -1.58789062 75.22460938 C0.35416543 75.22754437 2.2962232 75.22952846 4.23828125 75.23046875 C5.61346672 75.24124702 5.61346672 75.24124702 7.01643372 75.25224304 C7.87379623 75.24916641 8.73115875 75.24608978 9.61450195 75.24291992 C10.36649368 75.24434494 11.11848541 75.24576996 11.89326477 75.24723816 C14.42406693 75.07122855 14.42406693 75.07122855 18 73 C18 54.52 18 36.04 18 17 C13.77032683 17.69283674 13.77032683 17.69283674 9.57714844 18.56787109 C6.25629256 19.12470274 3.13062958 19.02240383 -0.234375 18.9140625 C-1.25232147 18.88220352 -1.25232147 18.88220352 -2.29083252 18.84970093 C-3.71628036 18.80366113 -5.14163815 18.75475303 -6.56689453 18.703125 C-8.75664954 18.62476204 -10.94655022 18.55785825 -13.13671875 18.4921875 C-14.52346031 18.44599212 -15.91018019 18.3991405 -17.296875 18.3515625 C-18.55854492 18.30854004 -19.82021484 18.26551758 -21.12011719 18.22119141 C-24 18 -24 18 -25 17 C-26.66617115 16.95936168 -28.33388095 16.957279 -30 17 Z " fill="#4B4BFE" transform="translate(54,5)"/>
<path d="M0 0 C3.25 1.875 3.25 1.875 6 4 C8.3243602 4.69730806 10.65673706 5.36912152 13 6 C15 8 15 8 15.1953125 10.1640625 C15.17210937 10.97617188 15.14890625 11.78828125 15.125 12.625 C15.10695312 13.44226562 15.08890625 14.25953125 15.0703125 15.1015625 C15.04710937 15.72804688 15.02390625 16.35453125 15 17 C9.86459034 19.52254836 6.24912057 20.36063451 0.421875 20.21484375 C-0.61800568 20.18941246 -0.61800568 20.18941246 -1.67889404 20.16346741 C-3.13122515 20.12324772 -4.58335279 20.07492358 -6.03515625 20.01879883 C-8.25791106 19.93720961 -10.47928281 19.89392685 -12.703125 19.85351562 C-14.11986468 19.80958641 -15.53653775 19.76344078 -16.953125 19.71484375 C-18.23348633 19.67480225 -19.51384766 19.63476074 -20.83300781 19.59350586 C-24 19 -24 19 -25.91308594 17.14282227 C-27.41239406 14.18697604 -27.47697028 12.27065332 -27 9 C-24.32211514 4.92495783 -20.60096006 3.99521621 -16.12109375 2.7109375 C-5.90399879 -0.71357683 -5.90399879 -0.71357683 0 0 Z M-13 10 C-15.31347872 10.73260159 -17.645752 11.411438 -20 12 C-20 12.33 -20 12.66 -20 13 C-7.46827783 13.14236956 -7.46827783 13.14236956 5 12 C4.01 11.34 3.02 10.68 2 10 C1.4225 9.46375 0.845 8.9275 0.25 8.375 C-4.72907513 5.33223186 -8.78172113 6.57264842 -13 10 Z " fill="#DEE521" transform="translate(54,5)"/>
<path d="M0 0 C6.93 0 13.86 0 21 0 C21 1.98 21 3.96 21 6 C14.07 6 7.14 6 0 6 C0 4.02 0 2.04 0 0 Z " fill="#0DCFFF" transform="translate(28,57)"/>
<path d="M0 0 C6.93 0 13.86 0 21 0 C21 1.98 21 3.96 21 6 C14.07 6 7.14 6 0 6 C0 4.02 0 2.04 0 0 Z " fill="#0DCFFF" transform="translate(28,40)"/>
<path d="M0 0 C1.98 0 3.96 0 6 0 C6.46707789 4.01686987 6.32150834 5.56501812 3.875 8.875 C1 11 1 11 -2.0625 11.5 C-5.34541543 10.94120588 -6.81399622 10.52231206 -9 8 C-9.25 4.8125 -9.25 4.8125 -9 2 C-6.36 2 -3.72 2 -1 2 C-0.67 1.34 -0.34 0.68 0 0 Z " fill="#43D728" transform="translate(62,54)"/>
<path d="M0 0 C1.98 0 3.96 0 6 0 C6.46707789 4.01686987 6.32150834 5.56501812 3.875 8.875 C1 11 1 11 -2.0625 11.5 C-5.34541543 10.94120588 -6.81399622 10.52231206 -9 8 C-9.25 4.8125 -9.25 4.8125 -9 2 C-6.36 2 -3.72 2 -1 2 C-0.67 1.34 -0.34 0.68 0 0 Z " fill="#43D728" transform="translate(62,37)"/>
</svg>
